<?xml version="1.0" standalone="no"?>
<!DOCTYPE svg PUBLIC "-//W3C//DTD SVG 20010904//EN"
 "http://www.w3.org/TR/2001/REC-SVG-20010904/DTD/svg10.dtd">
<svg version="1.0" xmlns="http://www.w3.org/2000/svg"
 width="500.000000pt" height="500.000000pt" viewBox="0 0 500.000000 500.000000"
 preserveAspectRatio="xMidYMid meet">
<metadata>
Created by potrace 1.14, written by Peter Selinger 2001-2017
</metadata>
<g transform="translate(0.000000,500.000000) scale(0.100000,-0.100000)"
fill="#000000" stroke="none">
<path d="M3349 4174 c-5 -6 -22 -14 -38 -17 -31 -6 -84 -55 -75 -69 3 -4 2 -8
-3 -9 -44 -4 -71 -13 -88 -29 -11 -10 -36 -25 -57 -33 -30 -13 -42 -28 -72
-88 -20 -40 -36 -79 -36 -86 0 -8 -7 -16 -16 -20 -20 -7 -58 -46 -63 -64 -11
-39 0 -83 29 -114 13 -14 19 -25 12 -25 -28 0 1 -99 38 -130 18 -15 -7 -66
-125 -259 -71 -116 -137 -224 -146 -239 -9 -15 -122 -197 -253 -405 -130 -208
-236 -382 -236 -387 0 -5 -4 -10 -8 -12 -4 -1 -93 -139 -196 -305 -211 -339
-183 -313 -289 -276 -38 13 -82 18 -162 18 -100 -1 -115 -3 -158 -27 -56 -31
-102 -78 -112 -116 -3 -14 -20 -46 -36 -70 -54 -80 -61 -112 -45 -196 7 -33
43 -109 63 -131 10 -11 33 -37 51 -58 17 -21 32 -35 32 -31 0 4 8 -2 18 -12
36 -40 156 -99 257 -127 45 -12 191 -15 235 -5 34 8 84 33 105 52 39 38 77 96
72 109 -3 8 -1 20 5 28 8 11 9 10 4 -4 -9 -28 -2 -20 35 36 31 47 34 59 34
127 0 65 -4 83 -30 130 -28 51 -111 143 -166 183 -22 16 -23 19 -9 42 8 14 42
68 74 122 33 54 62 100 65 103 4 3 26 37 49 75 41 67 113 182 191 307 20 31
105 169 190 305 85 136 158 250 163 251 4 2 8 8 8 13 0 6 17 36 38 67 21 31
42 64 45 72 4 8 25 42 47 75 38 59 95 149 115 185 6 10 22 35 37 56 14 22 42
66 63 99 73 116 80 125 95 125 8 0 28 7 44 15 18 10 33 12 40 6 11 -9 44 -14
83 -12 27 1 83 56 83 82 0 10 12 25 29 33 16 9 31 22 34 31 4 8 22 23 42 32
19 9 35 22 35 29 0 6 6 17 13 23 8 6 13 21 12 33 -2 13 3 32 10 43 15 25 24
85 13 85 -5 0 5 18 23 39 18 23 32 52 33 70 0 17 4 31 7 31 13 0 32 62 31 97
-2 44 -51 93 -93 93 -15 0 -34 6 -41 13 -37 37 -125 49 -149 21z"/>
</g>
</svg>
